<?xml version="1.0" encoding="utf-8"?>
<!-- Generator: Adobe Illustrator 24.0.1, SVG Export Plug-In . SVG Version: 6.00 Build 0)  -->
<svg version="1.1" id="Layer_1" xmlns="http://www.w3.org/2000/svg" xmlns:xlink="http://www.w3.org/1999/xlink" x="0px" y="0px"
	 viewBox="0 0 156.82 50" style="enable-background:new 0 0 156.82 50;" xml:space="preserve">
<style type="text/css">
	.st0{fill:#FFFFFF;}
	.st1{fill:#86C440;}
</style>
<g>
	<g>
		<g>
			<g>
				<path class="st0" d="M30.89,44.06h0.73v3.16h-0.73V44.06z"/>
				<path class="st0" d="M40.33,44.06v3.16h-0.6l-1.58-1.92v1.92h-0.72v-3.16h0.6l1.57,1.92v-1.92H40.33z"/>
				<path class="st0" d="M45.94,45.64c0-0.95,0.73-1.63,1.72-1.63c0.55,0,1,0.2,1.3,0.56L48.49,45c-0.21-0.24-0.48-0.37-0.79-0.37
					c-0.59,0-1.01,0.42-1.01,1.01c0,0.6,0.42,1.01,1.01,1.01c0.32,0,0.58-0.13,0.79-0.37l0.47,0.43c-0.3,0.37-0.75,0.56-1.31,0.56
					C46.67,47.27,45.94,46.59,45.94,45.64z"/>
				<path class="st0" d="M54.24,45.64c0-0.94,0.73-1.63,1.73-1.63c0.99,0,1.73,0.69,1.73,1.63c0,0.94-0.74,1.64-1.73,1.64
					C54.97,47.27,54.24,46.58,54.24,45.64z M56.96,45.64c0-0.6-0.42-1.01-0.99-1.01c-0.56,0-0.99,0.41-0.99,1.01
					c0,0.6,0.42,1.01,0.99,1.01C56.54,46.65,56.96,46.24,56.96,45.64z"/>
				<path class="st0" d="M65.33,47.22l-0.61-0.88h-0.04h-0.64v0.88h-0.73v-3.16h1.37c0.84,0,1.37,0.44,1.37,1.15
					c0,0.47-0.24,0.82-0.65,1l0.71,1.02H65.33z M64.64,44.65h-0.6v1.1h0.6c0.45,0,0.67-0.21,0.67-0.55
					C65.31,44.86,65.09,44.65,64.64,44.65z"/>
				<path class="st0" d="M74.44,45.2c0,0.71-0.53,1.14-1.37,1.14h-0.64v0.87h-0.73v-3.16h1.37C73.91,44.06,74.44,44.5,74.44,45.2z
					 M73.69,45.2c0-0.35-0.23-0.55-0.67-0.55h-0.6v1.1h0.6C73.47,45.75,73.69,45.55,73.69,45.2z"/>
				<path class="st0" d="M79.86,45.64c0-0.94,0.73-1.63,1.73-1.63c0.99,0,1.73,0.69,1.73,1.63c0,0.94-0.74,1.64-1.73,1.64
					C80.59,47.27,79.86,46.58,79.86,45.64z M82.58,45.64c0-0.6-0.42-1.01-0.99-1.01c-0.56,0-0.99,0.41-0.99,1.01
					c0,0.6,0.42,1.01,0.99,1.01C82.16,46.65,82.58,46.24,82.58,45.64z"/>
				<path class="st0" d="M90.95,47.22l-0.61-0.88H90.3h-0.64v0.88h-0.73v-3.16h1.37c0.84,0,1.37,0.44,1.37,1.15
					c0,0.47-0.24,0.82-0.65,1l0.71,1.02H90.95z M90.26,44.65h-0.6v1.1h0.6c0.45,0,0.67-0.21,0.67-0.55
					C90.93,44.86,90.71,44.65,90.26,44.65z"/>
				<path class="st0" d="M99.4,46.54h-1.47l-0.28,0.68H96.9l1.41-3.16h0.72l1.41,3.16h-0.77L99.4,46.54z M99.16,45.99l-0.5-1.21
					l-0.5,1.21H99.16z"/>
				<path class="st0" d="M106.33,44.65h-1.01v-0.6h2.76v0.6h-1.01v2.57h-0.73V44.65z"/>
				<path class="st0" d="M115.98,46.63v0.59h-2.45v-3.16h2.39v0.59h-1.66v0.69h1.47v0.57h-1.47v0.73H115.98z"/>
				<path class="st0" d="M121.62,44.06h1.44c1.03,0,1.74,0.62,1.74,1.58c0,0.96-0.71,1.58-1.74,1.58h-1.44V44.06z M123.02,46.62
					c0.63,0,1.04-0.38,1.04-0.98c0-0.6-0.41-0.98-1.04-0.98h-0.67v1.96H123.02z"/>
			</g>
		</g>
		<g>
			<g>
				<g>
					<path class="st1" d="M102.39,12.37c-1.87,0-3.65,0.38-5.28,1.06v6.28c1.45-1.16,3.28-1.86,5.28-1.86
						c4.66,0,8.44,3.78,8.44,8.44s-3.78,8.44-8.44,8.44c-4.61,0-8.35-3.69-8.43-8.28h-0.01V2.73c0-1.51-1.23-2.73-2.74-2.73
						c-1.51,0-2.74,1.22-2.74,2.74v23.54c0,7.68,6.23,13.91,13.91,13.91c7.68,0,13.91-6.23,13.91-13.91S110.07,12.37,102.39,12.37z"
						/>
				</g>
				<g>
					<path class="st1" d="M145.46,26.28v-11.1V8.94V3.03V2.89c0-1.48-1.11-2.81-2.59-2.89c-1.58-0.08-2.88,1.17-2.88,2.73v3.04v7.08
						v13.42c0,5.83,3.55,10.8,8.61,12.92c1.54,0.64,3.28-0.32,3.63-1.95v0c0.27-1.25-0.39-2.51-1.56-3.02
						C147.61,32.89,145.46,29.84,145.46,26.28z"/>
				</g>
				<g>
					<path class="st1" d="M134.52,26.28V10.79v-7.9c0-1.48-1.11-2.81-2.59-2.89c-1.58-0.08-2.88,1.17-2.88,2.73v23.54
						c0,11.13,7.37,20.53,17.49,23.6c1.52,0.46,3.12-0.5,3.45-2.06v0c0.3-1.39-0.53-2.76-1.89-3.18
						C140.24,42.24,134.52,34.93,134.52,26.28z"/>
				</g>
				<g>
					<path class="st1" d="M72.9,12.37c-1.87,0-3.65,0.38-5.28,1.06v6.28c1.45-1.16,3.28-1.86,5.28-1.86c4.66,0,8.44,3.78,8.44,8.44
						s-3.78,8.44-8.44,8.44c-4.61,0-8.35-3.69-8.43-8.28h-0.01V2.73c0-1.51-1.23-2.73-2.74-2.73c-1.51,0-2.74,1.22-2.74,2.74v23.54
						c0,7.68,6.23,13.91,13.91,13.91c7.68,0,13.91-6.23,13.91-13.91S80.58,12.37,72.9,12.37z"/>
				</g>
				<g>
					<path class="st1" d="M13.91,12.37c-1.87,0-3.65,0.38-5.28,1.06v6.28c1.45-1.16,3.28-1.86,5.28-1.86c4.66,0,8.44,3.78,8.44,8.44
						s-3.78,8.44-8.44,8.44c-4.61,0-8.35-3.69-8.43-8.28H5.47V2.73C5.47,1.22,4.25,0,2.74,0C1.22,0,0,1.22,0,2.74v23.54
						c0,7.68,6.23,13.91,13.91,13.91c7.68,0,13.91-6.23,13.91-13.91S21.59,12.37,13.91,12.37z"/>
				</g>
				<g>
					<path class="st1" d="M122.24,15.68L122.24,15.68c-1.51,0-2.74,1.22-2.74,2.74v18.1c0,1.51,1.22,2.74,2.74,2.74h0
						c1.51,0,2.74-1.22,2.74-2.74v-18.1C124.98,16.9,123.75,15.68,122.24,15.68z"/>
				</g>
				<g>
					<g>
						<path class="st1" d="M57.32,26.28c0,7.68-6.23,13.91-13.91,13.91s-13.91-6.23-13.91-13.91s6.23-13.91,13.91-13.91
							S57.32,18.6,57.32,26.28z M43.4,17.84c-4.66,0-8.44,3.78-8.44,8.44s3.78,8.44,8.44,8.44s8.44-3.78,8.44-8.44
							S48.07,17.84,43.4,17.84z"/>
					</g>
				</g>
				<g>
					<path class="st1" d="M156.82,9.63L156.82,9.63c0-1.51-1.22-2.74-2.74-2.74h-31.02c-1.51,0-2.74,1.22-2.74,2.74v0
						c0,1.51,1.22,2.74,2.74,2.74l31.02,0C155.6,12.37,156.82,11.14,156.82,9.63z"/>
				</g>
			</g>
		</g>
	</g>
	<g>
		<g>
			<defs>
				<rect id="SVGID_1_" x="8.63" y="12.37" width="19.14" height="15.1"/>
			</defs>
			<clipPath id="SVGID_2_">
				<use xlink:href="#SVGID_1_"  style="overflow:visible;"/>
			</clipPath>
		</g>
		<g>
			<defs>
				<rect id="SVGID_3_" x="67.67" y="12.37" width="19.14" height="15.1"/>
			</defs>
			<clipPath id="SVGID_4_">
				<use xlink:href="#SVGID_3_"  style="overflow:visible;"/>
			</clipPath>
		</g>
		<g>
			<defs>
				<rect id="SVGID_5_" x="97.16" y="12.37" width="19.14" height="15.1"/>
			</defs>
			<clipPath id="SVGID_6_">
				<use xlink:href="#SVGID_5_"  style="overflow:visible;"/>
			</clipPath>
		</g>
	</g>
</g>
</svg>
